<?xml version="1.0" encoding="utf-8"?>
<!-- Generator: Adobe Illustrator 24.3.0, SVG Export Plug-In . SVG Version: 6.00 Build 0)  -->
<svg version="1.1" id="Layer_1" xmlns="http://www.w3.org/2000/svg" xmlns:xlink="http://www.w3.org/1999/xlink" x="0px" y="0px"
	 viewBox="0 0 595.28 841.89" style="enable-background:new 0 0 595.28 841.89;" xml:space="preserve">
<g>
	<path d="M411.45,410.87c2.8,0,5.26,0.76,6.18-0.11c13.3-12.56,24.19-27.84,30.26-44.31c5.84-15.81,11.25-33.46,5.77-51.48
		c-2.2-7.23-3.9-14.67-5.13-22.13c-3.63-21.99,8.49-27.38,27.75-28.43c6.73-0.37,13.49-0.06,23.43-0.06
		c-6.68-5.87-11.01-9.74-15.42-13.52c-5.01-4.29-9.89-8.78-15.23-12.64c-3.14-2.27-6.93-4.55-10.63-4.96c-9.11-1-18.47-2.1-27.47-1
		c-12.79,1.56-17.56,13.32-20.75,23.15c-3.35,10.31-2.79,22-3.25,33.11c-0.39,9.49,1.18,19.16-0.07,28.49
		c-0.59,4.39-4.89,9.91-8.98,11.9c-11.37,5.53-22.75,5.34-33.74-2.91c-23.42-17.57-49.52-29.36-78.59-34.29
		c-23.03-3.91-46.02-6.62-69.46-3.58c-29.48,3.82-53.56,17.77-75.77,36.83c-32.32,27.74-44.19,63.77-44.78,104.67
		c-0.12,8.54,1.45,17.27,3.53,25.6c0.88,3.51,5.08,6.18,8.71,10.29c1.29-3.04,1.87-4.41,1.8-4.24c4.34,1.08,8.79,3.5,12.81,2.94
		c14.44-2.02,21.22,5.21,31.94,12.99c12.05,8.74,10.75,21.12,15.46,31.26c4.55,9.79,3.74,22.89,2.63,34.27
		c-1.42,14.6-0.05,29.6-7.96,43.74c-3.11,5.55,1.22,15.41,2.66,23.21c0.23,1.22,3.02,2.6,4.75,2.81c7.53,0.92,15.16,2.27,22.68,1.89
		c11.24-0.56,22.42-2.44,33.63-3.76c0.15-0.92,0.31-1.83,0.46-2.75c-4.39-1.47-8.7-3.35-13.2-4.35
		c-22.06-4.91-24.24-10.5-24.46-27.05c-0.26-19.85,4.06-38.23,13.64-55.81c13.76,4.26,14.52,16.86,16.98,28.09
		c2.2,10.07,3.74,20.22,14.93,26.32c1.26-4.89,2.45-9.53,3.65-14.18c1.73,12.14,9.9,15.12,21.49,13.69
		c-1.58-3.56-3.61-7.3-4.93-11.28c-3.27-9.88-7.19-19.7-8.95-29.87c-1.19-6.89-2.56-12.16-9.53-14.71
		c-1.85-0.68-3.53-1.83-5.24-2.83c-17.82-10.39-18.79-10.99-8.48-27.91c7.91-12.97,19.35-24.87,33.75-29.52
		c14.5-4.68,30.6-4.8,46.06-6.01c22.93-1.79,43.47-8.67,62.33-22.44c9.04-6.6,20.86-9.43,31.46-13.88
		C403.06,414.05,408.04,412.21,411.45,410.87z"/>
</g>
</svg>
