<?xml version="1.0" encoding="utf-8"?>
<!-- Generator: Adobe Illustrator 24.3.0, SVG Export Plug-In . SVG Version: 6.00 Build 0)  -->
<svg version="1.1" id="Layer_1" xmlns="http://www.w3.org/2000/svg" xmlns:xlink="http://www.w3.org/1999/xlink" x="0px" y="0px"
	 viewBox="0 0 595.28 841.89" style="enable-background:new 0 0 595.28 841.89;" xml:space="preserve">
<style type="text/css">
	.st0{fill:#FFFFFF;}
</style>
<g>
	<path d="M305.92,413.93c2.1,0,3.94,0.57,4.63-0.09c9.98-9.42,18.14-20.88,22.7-33.23c4.38-11.86,8.44-25.1,4.32-38.61
		c-1.65-5.42-2.93-11-3.85-16.6c-2.72-16.49,6.37-20.53,20.81-21.32c5.05-0.28,10.12-0.04,17.57-0.04
		c-5.01-4.4-8.26-7.31-11.57-10.14c-3.76-3.22-7.42-6.59-11.42-9.48c-2.35-1.7-5.2-3.42-7.97-3.72c-6.83-0.75-13.86-1.57-20.61-0.75
		c-9.59,1.17-13.17,9.99-15.57,17.36c-2.51,7.73-2.09,16.5-2.44,24.84c-0.29,7.12,0.88,14.37-0.05,21.36
		c-0.44,3.29-3.67,7.43-6.74,8.92c-8.53,4.15-17.06,4-25.31-2.18c-17.57-13.18-37.14-22.02-58.94-25.72
		c-17.28-2.93-34.51-4.96-52.09-2.68c-22.11,2.87-40.17,13.33-56.82,27.63c-24.24,20.81-33.14,47.83-33.58,78.5
		c-0.09,6.41,1.09,12.96,2.65,19.2c0.66,2.63,3.81,4.64,6.53,7.72c0.97-2.28,1.41-3.31,1.35-3.18c3.25,0.81,6.59,2.63,9.61,2.2
		c10.83-1.51,15.91,3.9,23.96,9.74c9.04,6.56,8.06,15.84,11.59,23.44c3.41,7.34,2.81,17.17,1.97,25.7
		c-1.07,10.95-0.04,22.2-5.97,32.81c-2.33,4.16,0.92,11.56,1.99,17.41c0.17,0.92,2.26,1.95,3.56,2.11
		c5.65,0.69,11.37,1.7,17.01,1.42c8.43-0.42,16.82-1.83,25.22-2.82c0.12-0.69,0.23-1.37,0.35-2.06c-3.3-1.11-6.52-2.51-9.9-3.27
		c-16.54-3.68-18.18-7.88-18.35-20.29c-0.2-14.89,3.05-28.67,10.23-41.86c10.32,3.2,10.89,12.65,12.73,21.06
		c1.65,7.55,2.8,15.16,11.2,19.74c0.94-3.67,1.84-7.15,2.74-10.63c1.3,9.1,7.42,11.34,16.12,10.27c-1.18-2.67-2.71-5.48-3.7-8.46
		c-2.45-7.41-5.4-14.78-6.71-22.41c-0.89-5.17-1.92-9.12-7.14-11.03c-1.38-0.51-2.64-1.37-3.93-2.12
		c-13.36-7.79-14.09-8.24-6.36-20.93c5.93-9.73,14.51-18.65,25.31-22.14c10.88-3.51,22.95-3.6,34.55-4.51
		c17.2-1.34,32.61-6.5,46.75-16.83c6.78-4.95,15.65-7.07,23.6-10.41C299.62,416.31,303.36,414.93,305.92,413.93z"/>
</g>
<g>
	<g>
		<path class="st0" d="M459.03,310.88c25.81,0,51.62,0,77.43,0c0,62.93,0,125.85,0,188.78c-54.78,0-109.57,0-164.35,0
			c0-62.93,0-125.85,0-188.78c25.81,0,51.62,0,77.43,0c-0.3,0.06-0.59,0.16-0.89,0.19c-2.45,0.27-4.91,0.43-7.36,0.8
			c-5,0.76-9.84,2.38-14.42,5.2c-6.56,4.04-12.02,9.97-16.82,17.07c-4.24,6.27-6.94,13.51-8.23,21.74
			c-1.14,7.3-1.44,14.69-1.57,22.1c-0.02,1.23,0,2.47,0,3.49c10.35,0,20.58,0,30.74,0c0-1.62-0.03-2.95,0.01-4.27
			c0.17-5.35,1.49-10.23,3.55-14.79c2.1-4.65,4.75-8.64,8.55-10.87c5.41-3.16,11.07-3.82,16.84-2.08c3.11,0.93,6.09,2.39,8.5,5.25
			c5.38,6.36,6.53,14.67,5.36,23.52c-0.87,6.54-3.47,12.29-7.17,16.76c-3.22,3.9-6.84,7.22-10.35,10.67
			c-2.65,2.6-5.66,4.57-7.79,8.08c-2.81,4.62-5.21,9.51-6.39,15.3c-1.4,6.93-1.46,14.02-1.35,21.12c0,0.1,0.08,0.2,0.12,0.3
			c8.99,0,17.96,0,26.98,0c0.04-0.97,0.1-1.89,0.12-2.82c0.15-8.35,2.62-15.23,7.32-20.81c2.67-3.17,5.7-5.61,8.58-8.36
			c3.79-3.62,7.54-7.35,11.17-11.25c4.86-5.23,7.96-12.19,10.37-19.73c1.47-4.58,2.55-9.33,2.72-14.32c0.18-5.07,0-10.14-0.68-15.18
			c-1.3-9.67-4.28-18.24-9.34-25.47c-8.93-12.79-20.17-19.21-33.09-20.93C463.03,311.34,461.03,311.12,459.03,310.88z
			 M454.37,465.94c-3.79-0.06-7.28,1.26-10.34,4.23c-5.98,5.81-6.16,15.57-0.43,21.76c2.78,3,6.03,4.42,9.57,4.68
			c4.81,0.36,9.17-1.21,12.77-5.61c4.48-5.48,4.49-13.73,0.07-19.32C462.76,467.57,458.78,465.98,454.37,465.94z"/>
		<path d="M459.03,310.88c2,0.24,3.99,0.46,5.99,0.73c12.92,1.72,24.16,8.14,33.09,20.93c5.05,7.24,8.04,15.8,9.34,25.47
			c0.68,5.03,0.85,10.1,0.68,15.18c-0.17,4.99-1.26,9.74-2.72,14.32c-2.41,7.54-5.51,14.49-10.37,19.73
			c-3.63,3.91-7.37,7.63-11.17,11.25c-2.88,2.75-5.92,5.19-8.58,8.36c-4.7,5.58-7.17,12.46-7.32,20.81
			c-0.02,0.92-0.07,1.84-0.12,2.82c-9.02,0-17.99,0-26.98,0c-0.04-0.1-0.12-0.2-0.12-0.3c-0.11-7.1-0.05-14.19,1.35-21.12
			c1.17-5.8,3.58-10.68,6.39-15.3c2.14-3.52,5.14-5.48,7.79-8.08c3.52-3.45,7.13-6.77,10.35-10.67c3.7-4.48,6.3-10.22,7.17-16.76
			c1.17-8.85,0.02-17.15-5.36-23.52c-2.41-2.85-5.39-4.31-8.5-5.25c-5.78-1.74-11.43-1.08-16.84,2.08
			c-3.81,2.22-6.45,6.22-8.55,10.87c-2.06,4.55-3.38,9.43-3.55,14.79c-0.04,1.32-0.01,2.65-0.01,4.27c-10.16,0-20.4,0-30.74,0
			c0-1.02-0.02-2.26,0-3.49c0.13-7.42,0.43-14.81,1.57-22.1c1.29-8.23,3.99-15.47,8.23-21.74c4.8-7.1,10.26-13.04,16.82-17.07
			c4.58-2.82,9.42-4.44,14.42-5.2c2.44-0.37,4.91-0.54,7.36-0.8c0.3-0.03,0.6-0.13,0.89-0.19
			C452.7,310.88,455.87,310.88,459.03,310.88z"/>
		<path d="M454.37,465.94c4.4,0.05,8.39,1.64,11.64,5.75c4.42,5.59,4.41,13.84-0.07,19.32c-3.6,4.4-7.96,5.97-12.77,5.61
			c-3.54-0.26-6.79-1.68-9.57-4.68c-5.73-6.19-5.55-15.95,0.43-21.76C447.09,467.19,450.58,465.88,454.37,465.94z"/>
	</g>
</g>
</svg>
